<?xml version="1.0" encoding="utf-8"?>
<!-- Generator: Adobe Illustrator 19.2.0, SVG Export Plug-In . SVG Version: 6.00 Build 0)  -->
<svg version="1.1" id="Universidad_de_JAEN" xmlns="http://www.w3.org/2000/svg" xmlns:xlink="http://www.w3.org/1999/xlink"
	 x="0px" y="0px" viewBox="0 0 1200 700" style="enable-background:new 0 0 1200 700;" xml:space="preserve">
<style type="text/css">
	.st0{fill:#026937;}
	.st1{fill:#FFFFFF;}
</style>
<g id="FONDO_Pantone_349">
	<polyline class="st0" points="0,700 0,0 1200,0 1200,700 	"/>
</g>
<g id="LOGO_JAEN_1T">
	<g id="XMLID_2_">
		<path id="XMLID_3_" class="st1" d="M486,381.6c0,21.5-7.3,39-21.8,52.5s-32.7,20.2-54.4,20.2c-21.7,0-39.8-6.7-54.4-20.2
			c-14.5-13.5-21.8-31-21.8-52.5V245.5H374v134.6c0,11.8,3.2,21.1,9.6,27.9s15.1,10.2,26.2,10.2c11,0,19.8-3.4,26.3-10.2
			c6.5-6.8,9.7-16.1,9.7-27.9V245.5H486V381.6z"/>
		<path id="XMLID_4_" class="st1" d="M634.1,384.5c0,21.9-7.4,39.2-22.1,52c-13.6,11.8-30.5,17.7-50.9,17.7
			c-21.3,0-39.1-7.1-53.2-21.2l26.7-26.5c7.7,7.8,16.6,11.6,26.5,11.6c21.7,0,32.6-11.8,32.6-35.5V245.5h40.4V384.5z"/>
		<path id="XMLID_5_" class="st1" d="M833.9,453.6h-41.5v-18.7c-14,14.1-32.2,21.1-54.5,21.1c-24.5,0-42.8-6.2-54.9-18.7
			c-10.8-11.1-16.2-25.9-16.2-44.3c0-17.9,6.1-32.3,18.3-43.1c12.2-10.8,29.8-16.3,52.9-16.3h54.5V319c0-25.7-15-38.6-45.1-38.6
			c-19.8,0-34.8,6.6-45.1,19.9L675,274.7c9.5-11.1,20.1-19,31.7-23.6c10.6-4.1,24.7-6.1,42.3-6.1c56.6,0,85,23.6,85,70.7
			L833.9,453.6L833.9,453.6z M792.5,379.2v-16.7h-48.4c-24.7,0-37,9.9-37,29.7c0,19.5,12.6,29.3,37.8,29.3
			c17.6,0,30.5-3.9,38.6-11.8C789.5,404,792.5,393.8,792.5,379.2z"/>
	</g>
	<rect id="XMLID_56_" x="875.6" y="411.7" class="st1" width="41.7" height="41.7"/>
</g>
</svg>
