<?xml version="1.0" encoding="utf-8"?>
<!-- Generator: Adobe Illustrator 19.2.0, SVG Export Plug-In . SVG Version: 6.00 Build 0)  -->
<svg version="1.1" id="JAEN_1_" xmlns="http://www.w3.org/2000/svg" xmlns:xlink="http://www.w3.org/1999/xlink" x="0px" y="0px"
	 viewBox="0 0 150 150" style="enable-background:new 0 0 150 150;" xml:space="preserve">
<style type="text/css">
	.st0{fill:#026937;}
	.st1{fill:#231F20;}
</style>
<rect id="XMLID_1_" x="138.4" y="91.9" class="st0" width="10.6" height="10.6"/>
<g>
	<path class="st1" d="M39.6,84.3c0,5.5-1.8,9.9-5.5,13.3s-8.3,5.1-13.8,5.1S10.2,101,6.5,97.6C2.8,94.2,1,89.7,1,84.3V49.8h10.2
		v34.1c0,3,0.8,5.4,2.4,7.1s3.8,2.6,6.6,2.6s5-0.9,6.7-2.6s2.5-4.1,2.5-7.1V49.8h10.2C39.6,49.8,39.6,84.3,39.6,84.3z"/>
	<path class="st1" d="M77.2,85c0,5.6-1.9,10-5.6,13.2c-3.4,3-7.7,4.5-12.9,4.5c-5.4,0-9.9-1.8-13.5-5.4l6.8-6.7c2,2,4.2,2.9,6.7,2.9
		c5.5,0,8.3-3,8.3-9V49.8h10.2V85z"/>
	<path class="st1" d="M127.9,102.5h-10.5v-4.7c-3.6,3.6-8.2,5.4-13.8,5.4c-6.2,0-10.9-1.6-13.9-4.7c-2.7-2.8-4.1-6.6-4.1-11.2
		c0-4.5,1.5-8.2,4.6-10.9c3.1-2.7,7.6-4.1,13.4-4.1h13.8v-3.7c0-6.5-3.8-9.8-11.4-9.8c-5,0-8.8,1.7-11.4,5.1l-6.9-6.5
		c2.4-2.8,5.1-4.8,8-6c2.7-1,6.3-1.5,10.7-1.5c14.4,0,21.5,6,21.5,17.9C127.9,67.8,127.9,102.5,127.9,102.5z M117.3,83.7v-4.2H105
		c-6.3,0-9.4,2.5-9.4,7.5c0,4.9,3.2,7.4,9.6,7.4c4.5,0,7.7-1,9.8-3C116.6,90,117.3,87.4,117.3,83.7z"/>
</g>
</svg>
